<svg version="1.1" id="Layer_1" xmlns:x="ns_extend;" xmlns:i="ns_ai;" xmlns:graph="ns_graphs;" xmlns="http://www.w3.org/2000/svg" xmlns:xlink="http://www.w3.org/1999/xlink" x="0px" y="0px" viewBox="0 0 217.9 56" style="enable-background:new 0 0 217.9 56;" xml:space="preserve">
 <style type="text/css">
  .st0{fill-rule:evenodd;clip-rule:evenodd;fill:#C3D9F3;}
 </style>
 <metadata>
  <sfw xmlns="ns_sfw;">
   <slices>
   </slices>
   <sliceSourceBounds bottomLeftOrigin="true" height="56" width="217.9" x="-93.4" y="0">
   </sliceSourceBounds>
  </sfw>
 </metadata>
 <g>
  <path d="M84.1,35.8c-3.9,0-6.7-3-6.7-7.1c0-4.1,2.8-7.1,6.7-7.1c3.2,0,5.7,2.1,6.4,5.2h4.6c-0.9-5.5-5.2-9.3-11-9.3
		c-6.4,0-11.2,4.8-11.2,11.3s4.7,11.3,11.2,11.3c5.8,0,10.2-3.8,11-9.3h-4.6C89.9,33.7,87.4,35.8,84.1,35.8z">
  </path>
  <path d="M101.2,39.5l1.8-4.3h11.3l1.8,4.3h4.6L112,17.8h-6.4l-8.8,21.6H101.2z M104.6,31.2l3.9-9.5h0.4l3.9,9.5H104.6z">
  </path>
  <path d="M133.9,35.8c-3.5,0-6-2.8-6-6.7V17.8h-4.3v11.3c0,6.2,4.4,10.8,10.3,10.8c5.9,0,10.3-4.6,10.3-10.8V17.8h-4.3v11.3
		C139.9,33,137.4,35.8,133.9,35.8z">
  </path>
  <path d="M159.4,36c-3.6,0-6-1.2-6-3h-4.3c0,4.2,4.1,6.9,10.3,6.9c6.7,0,10.3-2.5,10.3-7.1c0-4.4-3-6.4-10.1-6.4
		c-4.1,0-5.8-0.6-5.8-2.3c0-1.9,1.9-2.9,5.6-2.9c3.4,0,5.6,1.2,5.6,3h4.3c0-4.2-4-6.9-9.9-6.9c-6.4,0-9.9,2.4-9.9,6.8
		c0,4.4,2.9,6.2,9.7,6.2c4.3,0,6.2,0.7,6.2,2.5C165.5,34.9,163.4,36,159.4,36z">
  </path>
  <path d="M177.1,39.5l1.8-4.3h11.3l1.8,4.3h4.6l-8.8-21.6h-6.4l-8.8,21.6H177.1z M180.5,31.2l3.9-9.5h0.4l3.9,9.5H180.5z">
  </path>
  <path d="M200.7,39.5h17.2v-3.9H205V17.8h-4.3V39.5z">
  </path>
  <path class="st0" d="M27.8,56c15.4,0,27.8-12.5,27.8-28c0-15.5-12.5-28-27.8-28C12.5,0,0,12.5,0,28C0,43.5,12.5,56,27.8,56z
		 M27.8,45.5c9.6,0,17.4-7.8,17.4-17.5s-7.8-17.5-17.4-17.5c-9.6,0-17.4,7.8-17.4,17.5S18.2,45.5,27.8,45.5z">
  </path>
 </g>
</svg>