<?xml version="1.0" encoding="UTF-8"?>
<svg width="1102px" height="432px" viewBox="0 0 1102 432" version="1.1" xmlns="http://www.w3.org/2000/svg" xmlns:xlink="http://www.w3.org/1999/xlink">
    <title>cin7-blue</title>
    <g id="cin7-blue" stroke="none" stroke-width="1" fill="none" fill-rule="evenodd">
        <g id="Group-2" transform="translate(49.9994, 82.0003)" fill="#002E6E">
            <path d="M458.7172,45.4805 C504.3972,45.4805 530.0572,73.1145 535.9772,108.3605 L481.2752,108.3605 C478.1742,99.0555 470.2792,93.1335 458.7172,93.1335 C438.9802,93.1335 427.9832,110.8985 427.9832,134.8655 C427.9832,158.5515 438.9802,176.5975 458.7172,176.5975 C470.2792,176.5975 478.1742,170.6765 481.2752,161.0895 L535.9772,161.0895 C530.0572,196.6175 504.3972,224.2515 458.7172,224.2515 C408.2442,224.2515 372.9982,186.7495 372.9982,134.8655 C372.9982,82.9835 408.2442,45.4805 458.7172,45.4805" id="Fill-1"></path>
            <polygon id="Fill-3" points="577.4286 221.4317 632.1316 221.4317 632.1316 48.3007 577.4286 48.3007"></polygon>
            <polygon id="Fill-5" points="835.6626 221.4317 790.8286 221.4317 727.6666 134.8657 727.6666 221.4317 674.9376 221.4317 674.9376 48.3007 725.9746 48.3007 782.9336 128.9457 782.9336 48.3007 835.6626 48.3007"></polygon>
            <polygon id="Fill-6" points="953.2456 221.4317 898.2616 221.4317 943.3766 94.8257 875.9856 94.8257 875.9856 48.3007 1001.7446 48.3007 1001.7446 83.5467"></polygon>
            <g id="Group" opacity="0.5" transform="translate(0.0007, 106.9701)">
                <polygon id="Fill-7" points="101.4934 167.612 129.0094 180.863 137.0184 184.719 94.8524 5.68434189e-14 63.2384 5.68434189e-14"></polygon>
                <polygon id="Fill-8" points="30.448 133.3991 65.972 150.5061 31.621 0.0001 -2.27373675e-13 0.0001"></polygon>
                <polygon id="Fill-12" points="177.9016 86.82 158.0836 0 126.4686 0 162.0926 156.082"></polygon>
            </g>
            <polygon id="Fill-9" points="215.3437 270.0577 184.5317 284.8957 243.4537 26.7427 264.7777 53.4717"></polygon>
            <polygon id="Fill-10" points="276.9961 240.3692 246.1571 255.2202 286.1011 80.2112 307.4441 106.9732"></polygon>
            <polygon id="Fill-11" points="85.31 0 63.983 26.742 188.602 26.742 182.498 53.484 42.657 53.484 21.33 80.228 176.394 80.228 170.291 106.97 0 106.97 6.104 133.712 164.187 133.712 129.01 287.833 153.721 299.732 222.134 0"></polygon>
        </g>
    </g>
</svg>