<?xml version="1.0" encoding="UTF-8"?>
<svg xmlns="http://www.w3.org/2000/svg" xmlns:xlink="http://www.w3.org/1999/xlink" viewBox="0 0 2500 1600">
  <defs>
    <style>
      .cls-1 {
        fill: #e59e85;
      }

      .cls-1, .cls-2, .cls-3, .cls-4, .cls-5, .cls-6, .cls-7, .cls-8, .cls-9, .cls-10, .cls-11, .cls-12, .cls-13, .cls-14 {
        stroke-width: 0px;
      }

      .cls-15 {
        isolation: isolate;
      }

      .cls-2 {
        opacity: .73;
      }

      .cls-2, .cls-12 {
        fill: #242b31;
      }

      .cls-16, .cls-4 {
        fill: #374a5a;
      }

      .cls-17 {
        clip-path: url(#clippath-1);
      }

      .cls-3 {
        mix-blend-mode: darken;
      }

      .cls-3, .cls-8 {
        fill: #2373af;
      }

      .cls-5, .cls-18 {
        fill: #efae97;
      }

      .cls-6 {
        fill: #f3e9dd;
      }

      .cls-7 {
        fill: #e45450;
      }

      .cls-19, .cls-9 {
        fill: #dd9226;
      }

      .cls-20 {
        clip-path: url(#clippath-3);
      }

      .cls-10 {
        fill: #fff;
      }

      .cls-11 {
        fill: #2a3944;
      }

      .cls-13 {
        fill: #f7cb45;
      }

      .cls-14 {
        fill: #3782c3;
      }
    </style>
    <clipPath id="clippath-1">
      <path class="cls-5" d="M2146.74,898.63c1.25,5.29,2.6,8.99,6.84,11.34,9.13,5.07,25,4.56,32.41,5.2,10.92.96,31.7,1.89,32.91,16.55.07.8.06,1.6,0,2.39-1.15,18.24-19.05,112.99-19.05,112.99l178.6,45.11s44.74-396.71,37.06-402.32c-7.68-5.61-193.56-82.34-230.9-42.99,0,0-6.03,93.83-13.15,104.96-7.13,11.13-54.32,49.12-44.37,58.8s28.02,6.76,26.69,10.99c0,0,1.45,8.45.13,14.95,0,0-8.67,55.68-7.18,62.01Z"/>
    </clipPath>
    <clipPath id="clippath-3">
      <path class="cls-9" d="M1638.96,791.75c-4.56,101.55-80.69,179.66-170.02,174.47-89.34-5.19-158.06-91.71-153.5-193.26,4.56-101.55,80.69-179.66,170.02-174.47,89.34,5.19,158.06,91.71,153.5,193.26Z"/>
    </clipPath>
  </defs>
  <g class="cls-15">
    <g id="Layer_1" data-name="Layer 1">
      <rect class="cls-6" width="2500" height="1600"/>
      <g>
        <path class="cls-10" d="M904.48,710.63c-8.21-23.4-39.01-29.94-63.32-25.02-8.88,1.8-17.75,4.61-26.78,3.91-20.21-1.58-34.51-19.57-51.39-30.8-26.11-17.37-62.26-18.2-89.14-2.04-15.42,9.27-28.9,23.92-46.82,25.53-20,1.8-37.01-13.28-55.43-21.28-24.83-10.79-55-8.24-77.67,6.55-15.56,10.16-27.88,25.67-45.37,31.95-13.18,4.73-27.66,3.58-41.51,5.69-13.84,2.11-28.76,9.27-32.53,22.76-2.94,10.51,2.09,22.05,10.19,29.36,8.1,7.32,18.77,11.09,29.37,13.69,18,4.41,36.71,5.9,55.19,4.48,116.09-.9,232.19-1.8,348.28-2.71,20.98-.16,42.88-.54,61.46-10.29,18.58-9.74,32.42-31.99,25.48-51.79Z"/>
        <g>
          <g>
            <polygon class="cls-5" points="1254.98 999.35 1225.02 937.18 1115.47 971.59 1146.92 1036.9 1254.98 999.35"/>
            <g>
              <g>
                <path class="cls-11" d="M1632.38,694.63l-601.75-155.24c-13.09-4.22-26.46-7.63-39.72-10.25l-6.58-1.7v.46c-20.12-3.59-39.81-5.36-57.58-5.36-63.76,0-123.64,26.69-168.6,75.15-44.65,48.13-69.24,112.05-69.24,179.98s24.59,131.85,69.24,179.98c44.96,48.46,104.83,75.15,168.6,75.15,19.07,0,40.36-2.75,62.03-7.89h0s.04-.01.04-.01c11.41-2.71,22.92-6.08,34.27-10.07l611.65-179.78c29.42-8.65,50.27-34.79,52.16-65.4h0c2.15-34.84-20.71-66.3-54.51-75.02ZM926.74,1013.8c-120.15,0-199.75-105.93-199.75-236.13s83.9-222.96,199.75-236.13c20,0,39.37,2.95,57.78,8.44l4.06,454.11c-19.61,6.3-40.37,9.7-61.84,9.7Z"/>
                <g>
                  <path class="cls-13" d="M1146.32,793.16c-14.1,215.6-257.18,313.2-379.66,141.75-33.33-46.65-50.48-106.5-47.79-166.51,7.8-173.63,187.94-281.85,320.8-199.69,19.83,12.26,37.45,28.23,52.67,47.14,41.88,52.04,58,115.77,53.98,177.32Z"/>
                  <path class="cls-19" d="M1095.43,790.26c-4.56,101.55-80.69,179.66-170.02,174.47-89.34-5.19-158.06-91.71-153.5-193.26,4.56-101.55,80.69-179.66,170.02-174.47,89.34,5.19,158.06,91.71,153.5,193.26Z"/>
                  <path class="cls-13" d="M1009.1,829.08c0-3.78-.28-7.58-.79-11.31-.24-1.77-.62-3.51-1.12-5.2-1.06-3.53-2.12-7.22-3.69-10.53-1.53-3.22-3.47-6.23-5.38-9.14-2.86-4.36-6.65-7.9-10.35-11.29-2.47-2.26-5.14-4.21-7.9-5.96-4.34-2.75-8.86-5.16-13.4-7.43-6.26-3.13-12.69-5.79-18.95-8.93.69-15.33,1.38-30.67,2.07-46,.06-1.43.13-2.87.19-4.3,5.31,1.51,10.48,3.6,15.43,6.28,2.69,1.13,5.42,1.43,8.18.89,2.74.02,5.33-.76,7.77-2.33,2.46-1.33,4.48-3.22,6.04-5.68,1.92-2.15,3.26-4.73,4.04-7.73.34-2.06.68-4.11,1.01-6.17.18-4.22-.58-8.21-2.28-11.96-1-1.64-2-3.28-3-4.92-2.44-3.05-5.37-5.22-8.8-6.54-3.35-1.81-6.8-3.37-10.33-4.65-5.21-1.89-10.55-3.01-15.93-4.1,0,0-.01,0-.02,0,0,0,0-.01,0-.02.17-3.75-1.09-7.76-3.3-10.55-2.11-2.66-5.69-4.78-8.89-4.81-3.33-.02-6.83,1.02-9.28,3.75-2.44,2.72-4.05,6.15-4.23,10.11-.01.26-.02.52-.03.78-.58.06-1.17.12-1.75.18-8.69.92-16.98,3.63-25.02,7.49-4.73,2.27-8.78,5.45-12.97,8.81-4.19,3.35-7.42,7.6-10.66,12.09-1.04,1.44-1.99,2.96-2.83,4.56-.4.75-.78,1.52-1.13,2.31-1.16,2.58-2.31,5.18-3.3,7.85-.63,1.7-1.15,3.45-1.53,5.24-.6,2.78-1.01,5.62-1.42,8.44-.14.95-.24,1.9-.3,2.86-.24,3.8.17,7.71.54,11.45.18,1.81.52,3.59.99,5.33,1.47,5.32,3.15,10.41,5.92,15.01,2.82,4.67,5.57,9.05,9.17,12.96,3.56,3.86,7.36,7.47,11.28,10.84,5.94,5.09,12.2,9.73,18.64,13.96,2.74,1.8,5.53,3.52,8.34,5.19-.69,15.44-1.39,30.89-2.08,46.33-.03.78-.07,1.56-.1,2.33-4.79-1.67-9.49-3.69-14.06-6.04-6.63-3.87-12.93-8.44-18.78-13.68-2.28-1.85-4.79-2.92-7.52-3.22-2.7-.85-5.44-.87-8.22-.06-2.71.57-5.1,1.83-7.18,3.78-2.31,1.52-4.18,3.6-5.59,6.25-.77,1.82-1.55,3.64-2.32,5.46-1.17,4.09-1.35,8.23-.56,12.43.61,1.9,1.21,3.8,1.82,5.7,1.67,3.62,4,6.56,7,8.81,6.3,5.64,13.1,10.52,20.29,14.55,5.07,2.84,10.15,5.62,15.44,7.87,3.71,1.58,7.49,2.94,11.32,4.07,2.06.61,4.14,1.16,6.22,1.66-.02.44-.04.87-.06,1.31-.17,3.75,1.09,7.76,3.3,10.55,2.11,2.66,5.69,4.78,8.89,4.81,3.33.02,6.83-1.02,9.28-3.75,2.34-2.62,3.92-5.89,4.2-9.66,4.16-.11,8.33-.53,12.43-1.13,3.71-.54,7.39-1.45,10.94-2.8,5.14-1.95,10.28-4.05,14.92-7.28,4.17-2.91,8.34-6.18,11.78-10.2,3.39-3.97,6.7-8.33,9.19-13.12,1.69-3.24,3.1-6.69,4.43-10.12.65-1.66,1.2-3.38,1.65-5.12.94-3.64,1.49-7.45,2-11.19.24-1.76.36-3.55.37-5.33ZM943.51,848.61c.6-13.28,1.19-26.56,1.79-39.84,2.75,1.25,5.5,2.52,8.21,3.88.52.26,1.04.53,1.56.8,3.15,1.85,6.2,3.92,9.02,6.34.86.96,1.68,1.97,2.45,3.03.36.72.7,1.46,1.02,2.21.16.7.29,1.4.4,2.11-.01,1-.06,1.99-.15,2.98-.37,1.52-.81,3.02-1.33,4.49-.82,1.63-1.73,3.21-2.72,4.71-1.09,1.26-2.24,2.45-3.45,3.56-1.83,1.25-3.74,2.34-5.7,3.29-3.29,1.14-6.66,1.93-10.07,2.41-.35.02-.69.02-1.04.03ZM913.19,735.36c-1.92-2.02-3.73-4.16-5.37-6.48-.44-.85-.85-1.73-1.23-2.62-.11-.49-.21-.97-.29-1.46.01-.55.04-1.1.08-1.65.23-.9.5-1.8.8-2.68.57-1.1,1.18-2.16,1.84-3.19.98-1.1,2.01-2.14,3.08-3.12,2.03-1.4,4.16-2.61,6.35-3.66,1.83-.65,3.68-1.19,5.55-1.66-.51,11.41-1.03,22.81-1.54,34.22-1.63-1.26-3.25-2.54-4.85-3.86-1.51-1.25-2.99-2.53-4.44-3.85Z"/>
                </g>
              </g>
              <path class="cls-12" d="M950.85,540.7s-132.62-10.13-200.71,119.88c-30.22,57.7-37.2,124.67-21.32,187.83,17.55,69.78,64.1,156.63,186.34,173.77,0,0-147.57,3.59-199.14-145.73-21.62-62.59-20.82-130.96,2.8-192.83,26.43-69.22,88.11-148.73,232.02-142.94Z"/>
            </g>
            <path class="cls-8" d="M1876.75,1202.25s-200.12,369.18-248.29,346.27c-23.06-10.97-42.09-43.2-55.41-64.8-28.9-46.86-57.4-93.96-85.87-141.07-61.83-102.33-123.29-204.9-184.62-307.53-9.42-15.76-10.37-13.44-19.77-29.21-2.31-3.87-4.86-10.98-8.31-13.92-15.59-13.26-59.83,8.69-77.15,13.4-16.62,4.52-33.25,9.04-49.87,13.56-34.29,9.32-18.12,21.47-12.86,40,7.01,24.73,19.03,47.76,28.54,71.64,25.05,62.87,50.1,125.74,75.15,188.61,37.02,92.91,74.05,185.83,111.07,278.74.28.69.55,1.38.83,2.08h456.49l70.07-397.75Z"/>
            <g>
              <g>
                <path class="cls-18" d="M2146.74,898.63c1.25,5.29,2.6,8.99,6.84,11.34,9.13,5.07,25,4.56,32.41,5.2,10.92.96,31.7,1.89,32.91,16.55.07.8.06,1.6,0,2.39-1.15,18.24-19.05,112.99-19.05,112.99l178.6,45.11s44.74-396.71,37.06-402.32c-7.68-5.61-193.56-82.34-230.9-42.99,0,0-6.03,93.83-13.15,104.96-7.13,11.13-54.32,49.12-44.37,58.8s28.02,6.76,26.69,10.99c0,0,1.45,8.45.13,14.95,0,0-8.67,55.68-7.18,62.01Z"/>
                <g class="cls-17">
                  <path class="cls-1" d="M2264.54,652.73c8.24,29.11,9.37,60.48,1.19,89.6s-25.96,55.81-50.92,72.9c-20.96,14.35-46.08,21.58-71.24,25.11-.17-64.86,1.73-129.72,5.7-194.46,37-1.54,78.65,1.38,115.27,6.85Z"/>
                </g>
              </g>
              <path class="cls-12" d="M2303.87,776.45c-4.72.01-8.47-3.78-11.58-7.34-20.48-23.43.53-56.02-19.3-79.99-10.23-12.36-49.95-23.11-71.65-28.27-19.2-4.57-16.77-6.05-17.75,6.99-.14,1.83-.65,3.92-2.29,4.74-1.66.83-3.61-.12-5.19-1.09-25.27-15.47-41.84-34.05-41.64-63.68.14-21.52,10.29-42.54,26.27-56.97,21.99-19.84,58.42-29.94,86.73-18.62,18.69,7.47,31.54,23.03,46.17,36.1,19.35,17.28,34.23,22.02,59.74,18.05,27.37-4.26,56.62-1.91,80.67,11.83,20.45,11.68,35.82,32.37,39.36,55.85,4.49,29.79-15.17,55.57-17.69,84.55-2.13,24.51,4.57,48.75-.94,73.21-6.23,27.65-25.99,81.68-60.98,81.7-13.48.01-22.26-8.54-30.23-18.24-10.14-12.34-31.45-48.15-29.38-63.99,19.54.03,38.67-15.11,43.07-34.14.9-3.91,1.26-8,.41-11.93-1.01-4.72-3.71-8.95-7.03-12.45-7.48-7.9-18.53-12.45-29.36-11.53-10.84.92-21.17,7.49-26.09,17.19-3.36,6.62-5.7,13.17-11.31,18.02Z"/>
              <path class="cls-1" d="M2201.01,917.18s79.85-3.26,80.81,22.54c.96,25.79-72.2,53.96-72.2,53.96,0,0,10.2-57.74,8.46-63.8-1.74-6.06-17.06-12.7-17.06-12.7Z"/>
            </g>
            <g>
              <path class="cls-14" d="M2500,1046.33c-91.57-36.33-173.08-34.2-173.08-34.2l-112.4,2.31c-135.24,2.78-259.86,64.65-324.06,164.11-9.08,14.06-16.96,28.85-23.12,44.28-22.83,57.22-33.03,125.41-60.68,377.16h693.33v-553.67Z"/>
              <path class="cls-10" d="M2326.92,1012.13s-227.97,294.26-274.98,300.27c-47.02,6.01-22.55-253.91-22.55-253.91,0,0,68.56-41.12,174.08-47.45,118.31-7.1,123.46,1.08,123.46,1.08Z"/>
              <path class="cls-7" d="M2139.46,1076.33c-11.95-23.3,7.99-60.1,7.99-60.1,0,0,33.86-12.41,84.79-7.44,0,0-19.65,45.19-52.42,63.14h0s-35.82,153.25-47.51,172.7c-11.68,19.45-59.02,64.8-80.38,67.78-28.95,4.04-27.88-85.82-28.92-95.26-.58-5.31,70-100.45,116.45-140.82Z"/>
            </g>
            <path class="cls-3" d="M1974.88,1091.04l157.43,508.96h-89.16s-59.68-340.49-68.27-508.96Z"/>
            <polygon class="cls-8" points="2214.63 1146.68 2420.44 1600 2462.62 1600 2214.63 1146.68"/>
            <rect class="cls-4" x="1191.91" y="745.98" width="81.04" height="74.28"/>
            <ellipse class="cls-12" cx="2000.85" cy="1369.67" rx="17.38" ry="21.78"/>
            <ellipse class="cls-12" cx="1989.96" cy="1509.15" rx="17.38" ry="21.78"/>
            <g>
              <g>
                <path class="cls-16" d="M2175.91,696.13l-600.34-154.88c-.94-.24-1.87-.51-2.8-.81-12.64-4.01-25.55-7.28-38.34-9.8l-6.58-1.7v.46c-20.12-3.59-39.81-5.36-57.58-5.36-63.76,0-123.64,26.69-168.6,75.15-44.65,48.13-69.24,112.05-69.24,179.98s24.59,131.85,69.24,179.98c44.96,48.46,104.83,75.15,168.6,75.15,19.07,0,40.36-2.75,62.03-7.89h0s.04-.01.04-.01c11.41-2.71,22.92-6.08,34.27-10.07l611.65-179.78c29.42-8.65,50.27-34.79,52.16-65.4h0c2.15-34.84-20.71-66.3-54.51-75.02ZM1470.27,1015.3c-120.15,0-199.75-105.93-199.75-236.13s82.17-221.04,196.17-235.69c2.38-.31,4.79-.44,7.19-.4.2,0,.4,0,.6.01,29.87.62,53.72,25.14,53.99,55.01l3.23,361.04c.27,29.91-23.2,54.75-53.09,55.98-2.77.11-5.55.17-8.34.17Z"/>
                <g>
                  <path class="cls-13" d="M1689.85,794.66c-14.1,215.6-257.18,313.2-379.66,141.75-33.33-46.65-50.48-106.5-47.79-166.51,7.8-173.63,187.94-281.85,320.8-199.69,19.83,12.26,37.45,28.23,52.67,47.14,41.88,52.04,58,115.77,53.98,177.32Z"/>
                  <g>
                    <path class="cls-19" d="M1638.96,791.75c-4.56,101.55-80.69,179.66-170.02,174.47-89.34-5.19-158.06-91.71-153.5-193.26,4.56-101.55,80.69-179.66,170.02-174.47,89.34,5.19,158.06,91.71,153.5,193.26Z"/>
                    <g class="cls-20">
                      <path class="cls-9" d="M1587.02,641.98c4.03,9.45,61.36,122.21,9.09,222.93-52.27,100.72-153.88,101.57-153.88,101.57,0,0,112.7,48.84,196.95-85.45,84.25-134.29-52.15-239.04-52.15-239.04"/>
                    </g>
                  </g>
                  <path class="cls-13" d="M1552.63,830.58c0-3.78-.28-7.58-.79-11.31-.24-1.77-.62-3.51-1.12-5.2-1.06-3.53-2.12-7.22-3.69-10.53-1.53-3.22-3.47-6.23-5.38-9.14-2.86-4.36-6.65-7.9-10.35-11.29-2.47-2.26-5.14-4.21-7.9-5.96-4.34-2.75-8.86-5.16-13.4-7.43-6.26-3.13-12.69-5.79-18.95-8.93.69-15.33,1.38-30.67,2.07-46,.06-1.43.13-2.87.19-4.3,5.31,1.51,10.48,3.6,15.43,6.28,2.69,1.13,5.42,1.43,8.18.89,2.74.02,5.33-.76,7.77-2.33,2.46-1.33,4.48-3.22,6.04-5.68,1.92-2.15,3.26-4.73,4.04-7.73.34-2.06.68-4.11,1.01-6.17.18-4.22-.58-8.21-2.28-11.96-1-1.64-2-3.28-3-4.92-2.44-3.05-5.37-5.22-8.8-6.54-3.35-1.81-6.8-3.37-10.33-4.65-5.21-1.89-10.55-3.01-15.93-4.1,0,0-.01,0-.02,0,0,0,0-.01,0-.02.17-3.75-1.09-7.76-3.3-10.55-2.11-2.66-5.69-4.78-8.89-4.81-3.33-.02-6.83,1.02-9.28,3.75-2.44,2.72-4.05,6.15-4.23,10.11-.01.26-.02.52-.03.78-.58.06-1.17.12-1.75.18-8.69.92-16.98,3.63-25.02,7.49-4.73,2.27-8.78,5.45-12.97,8.81-4.19,3.35-7.42,7.6-10.66,12.09-1.04,1.44-1.99,2.96-2.83,4.56-.4.75-.78,1.52-1.13,2.31-1.16,2.58-2.31,5.18-3.3,7.85-.63,1.7-1.15,3.45-1.53,5.24-.6,2.78-1.01,5.62-1.42,8.44-.14.95-.24,1.9-.3,2.86-.24,3.8.17,7.71.54,11.45.18,1.81.52,3.59.99,5.33,1.47,5.32,3.15,10.41,5.92,15.01,2.82,4.67,5.57,9.05,9.17,12.96,3.56,3.86,7.36,7.47,11.28,10.84,5.94,5.09,12.2,9.73,18.64,13.96,2.74,1.8,5.53,3.52,8.34,5.19-.69,15.44-1.39,30.89-2.08,46.33-.03.78-.07,1.56-.1,2.33-4.79-1.67-9.49-3.69-14.06-6.04-6.63-3.87-12.93-8.44-18.78-13.68-2.28-1.85-4.79-2.92-7.52-3.22-2.7-.85-5.44-.87-8.22-.06-2.71.57-5.1,1.83-7.18,3.78-2.31,1.52-4.18,3.6-5.59,6.25-.77,1.82-1.55,3.64-2.32,5.46-1.17,4.09-1.35,8.23-.56,12.43.61,1.9,1.21,3.8,1.82,5.7,1.67,3.62,4,6.56,7,8.81,6.3,5.64,13.1,10.52,20.29,14.55,5.07,2.84,10.15,5.62,15.44,7.87,3.71,1.58,7.49,2.94,11.32,4.07,2.06.61,4.14,1.16,6.22,1.66-.02.44-.04.87-.06,1.31-.17,3.75,1.09,7.76,3.3,10.55,2.11,2.66,5.69,4.78,8.89,4.81,3.33.02,6.83-1.02,9.28-3.75,2.34-2.62,3.92-5.89,4.2-9.66,4.16-.11,8.33-.53,12.43-1.13,3.71-.54,7.39-1.45,10.94-2.8,5.14-1.95,10.28-4.05,14.92-7.28,4.17-2.91,8.35-6.18,11.78-10.2,3.39-3.97,6.7-8.32,9.19-13.12,1.69-3.24,3.1-6.69,4.43-10.12.65-1.66,1.2-3.38,1.65-5.12.94-3.64,1.49-7.45,2-11.19.24-1.76.36-3.55.37-5.33ZM1487.03,850.11c.6-13.28,1.19-26.56,1.79-39.84,2.75,1.25,5.5,2.52,8.21,3.88.52.26,1.04.53,1.56.8,3.15,1.85,6.2,3.92,9.02,6.34.86.96,1.68,1.97,2.45,3.03.36.72.7,1.46,1.02,2.21.16.7.29,1.4.4,2.11-.01,1-.06,1.99-.15,2.98-.37,1.52-.81,3.02-1.33,4.49-.82,1.63-1.73,3.21-2.72,4.71-1.09,1.26-2.24,2.45-3.45,3.56-1.83,1.25-3.74,2.34-5.7,3.29-3.29,1.14-6.66,1.93-10.07,2.41-.35.02-.69.02-1.04.03ZM1456.72,736.85c-1.92-2.02-3.73-4.16-5.37-6.48-.44-.85-.85-1.73-1.23-2.62-.11-.49-.21-.97-.29-1.46.01-.55.04-1.1.08-1.65.23-.9.5-1.8.8-2.68.57-1.1,1.18-2.16,1.84-3.19.98-1.1,2.01-2.14,3.08-3.12,2.03-1.4,4.16-2.61,6.35-3.66,1.83-.65,3.68-1.19,5.55-1.66-.51,11.41-1.03,22.81-1.54,34.22-1.63-1.26-3.25-2.54-4.85-3.86-1.51-1.25-2.99-2.53-4.44-3.85Z"/>
                  <path class="cls-9" d="M1454.32,600.08s-100.39,29.38-120.7,164.99c0,0-11.3,80.21,32.31,151.07,0,0-72.67-71.39-44.81-183.11s133.2-132.95,133.2-132.95Z"/>
                </g>
              </g>
              <path class="cls-12" d="M1494.38,542.2s-132.62-10.13-200.71,119.88c-30.22,57.7-37.2,124.67-21.32,187.83,17.55,69.78,64.1,156.63,186.34,173.77,0,0-147.57,3.59-199.14-145.73-21.62-62.59-20.82-130.96,2.8-192.83,26.43-69.22,88.11-148.73,232.02-142.94Z"/>
            </g>
            <g>
              <path class="cls-5" d="M1935.68,907.84c-1.73,6.7,12.48,23.49,15.67,29.62,8.08,15.54,13.27,26.09,22.4,41.05,2.58,4.23,5.05,10.62,10.23,12.22,6.31,1.95,15.12-1.6,20.79-4.11,8.08-3.57,15.63-8.16,24.28-10.28,6.95-1.7,14.03-2.79,21.03-4.22,10.62-2.17,28.6-4.93,33.04-16.76,3.66-9.75-13.79-42.94-14.1-53.01-.43-14.03-.52-28.37-.87-42.78,0,0-.71-131.09-72.21-152.05-64.99-19.05-99.65-3.77-81.77,41.27,17.88,45.04,34.65,108.18,21.51,159.05Z"/>
              <path class="cls-14" d="M2094.81,1600c-52.45-222.6-89.18-378.46-141.63-601.06-1.36-5.79-2.72-11.88-1.08-17.6,4.44-15.44,51.28-26.68,63.82-31.42,21.04-7.96,82.03-40.56,97.91-28.1,5.25,4.12,9.04,20.12,11.76,26.19,13.22,29.49,26.41,58.99,39.62,88.48,37.53,83.83,75.1,167.65,112.84,251.4,7.36,16.34,142.02,311.76,142.4,312.12-128.57-3.18-175.85-4.86-325.63,0Z"/>
            </g>
          </g>
          <path class="cls-12" d="M1582.61,543.07c11.61,3,23.47,10.8,33.63,16.8,25.43,15,48.83,33.75,68.34,55.95,69.93,79.57,69.74,202.58,25.17,294.77-17.18,35.54-47.88,77.74-88.06,89.55,0,0,30.05-8.83,30.07-8.84,34.08-10.02,59.26-46.01,73.72-76.01,39.52-81.95,43.15-184.42.17-265.88-10.43-19.78-23.75-38.02-39.76-53.66-16.27-15.9-40.25-36.42-62.78-42.23,0,0-40.48-10.44-40.5-10.45Z"/>
          <path class="cls-2" d="M1914.16,748.8s24.35,56.53,25.5,101.79c1.15,45.26-3.98,57.26-3.98,57.26l-21.51,6.32s14.52-26.07,12.83-78.79-12.83-86.58-12.83-86.58Z"/>
        </g>
        <path class="cls-10" d="M1721.15,584.77c-9.5.06-36,3.86-46.78,6.09-14.74,3.06-28.44,6.57-38.99,18.05-21.72,23.63-15.98,55.26-20.81,82.77-3.04-26.76-1.24-64.89-22.32-85.42-21.75-21.18-56.73-18.91-84.66-21.5,16.04-1.27,32.63-2.87,48.63-6.61,16.59-3.89,32.31-9.56,42.18-23.46,15.33-21.58,12.52-50.54,16.5-76.71,5,17.87,3.79,36.91,7.7,55.05,6.14,28.52,27.06,42.38,54.66,46.68,13.67,2.13,27.16,2.9,43.9,5.06Z"/>
        <path class="cls-10" d="M883.47,914.13c-5.14.03-19.49,2.09-25.33,3.3-7.98,1.66-15.4,3.56-21.11,9.77-11.76,12.8-8.65,29.93-11.27,44.82-1.64-14.49-.67-35.14-12.09-46.26-11.78-11.47-30.72-10.24-45.85-11.64,8.69-.69,17.67-1.55,26.34-3.58,8.99-2.1,17.5-5.18,22.84-12.7,8.3-11.69,6.78-27.37,8.94-41.54,2.71,9.67,2.05,19.99,4.17,29.81,3.32,15.44,14.65,22.95,29.6,25.28,7.4,1.15,14.71,1.57,23.77,2.74Z"/>
        <path class="cls-10" d="M901.47,1274.61c-13.47.88-26.62,6.48-40.05,5.08-16.2-1.7-29.52-13.17-44.72-19.02-19.35-7.45-42.18-5.18-59.69,5.93-10.19,6.47-18.97,15.86-30.67,18.83-15.19,3.85-30.51-4.11-45.64-8.19-16.58-4.47-34.41-4.23-50.87.68-10.52,3.13-21.48,9.31-24.45,19.87-3.55,12.62,6.59,25.82,18.88,30.4,14.9,5.56,32.86,2.36,48.55,2.27,23.69-.14,47.38.03,71.07.05,47.6.04,95.21.07,142.81.11,10.99,0,22.31-.04,32.5-4.15,10.2-4.11,19.14-13.32,19.52-24.31.61-17.41-19.86-28.67-37.24-27.54Z"/>
        <path class="cls-10" d="M1430.13,312.43c-5.68-8.7-18.02-10.74-28.01-7.87-5.6,1.61-11,4.48-16.82,4.36-11.44-.23-19.22-11.39-29.3-16.8-8.1-4.35-18.17-4.84-26.66-1.3-9.56,3.99-17.64,12.86-28,12.55-9.81-.3-17.12-8.69-25.41-13.95-11.05-7-25.37-8.57-37.67-4.11-16.53,5.99-27.25,18.11-46.23,18.19-8.44.03-16.91-1.84-25.28-.7-11.81,1.61-21.27,11.44-18.92,23.8,3.85,20.2,25.99,15.58,41.25,15.75,49.45.52,98.89-.39,148.32-1.53,12.51-.29,116.2,7.6,92.73-28.38Z"/>
      </g>
    </g>
  </g>
</svg>